<svg width="61" height="61" viewBox="0 0 61 61" fill="none" xmlns="http://www.w3.org/2000/svg">
  <circle cx="30.5" cy="30.3737" r="29" fill="#F2EEFF" stroke="white" stroke-width="2"/>
  <g clip-path="url(#clip0_2524_72367)">
    <g clip-path="url(#clip1_2524_72367)">
      <path d="M30.8735 40.7679C29.9561 40.7679 29.0957 40.7363 28.2897 40.6719L24.4364 45.2012C24.144 45.5452 23.5787 45.3394 23.5787 44.8888V39.7199C19.042 38.0217 17.5 34.2234 17.5 28.0705C17.5 19.3665 20.5862 15.3737 30.8735 15.3737C41.1608 15.3737 44.247 19.3665 44.247 28.0705C44.247 36.7745 41.1608 40.7674 30.8735 40.7674V40.7679Z" fill="#9179EE"/>
      <path d="M36.1226 26.907C36.2319 27.0635 36.2417 27.0821 36.2894 27.1297C36.5368 27.3688 36.9273 27.3706 37.1778 27.1297C37.2148 27.0928 37.2291 27.0715 37.345 26.9239C37.3428 23.3657 34.4483 21.0008 31.2333 21.0008C30.94 21.0008 30.8602 21.1168 30.3359 21.5741C30.8374 22.0115 30.9306 22.1475 31.2333 22.1475C33.7524 22.1475 36.1204 23.9808 36.1226 26.9066V26.907Z" fill="white"/>
      <path d="M33.6778 26.9244C33.7964 27.0755 33.8084 27.0937 33.8445 27.1297C34.0946 27.3702 34.4829 27.3697 34.733 27.1297C35.3473 26.5173 34.3072 23.295 31.2331 23.295C30.9278 23.295 30.856 23.4119 30.2725 23.9573C30.9634 24.3879 31.0067 24.4422 31.2331 24.4422C32.4715 24.4422 33.676 25.3053 33.6778 26.9248V26.9244Z" fill="white"/>
      <path d="M38.7869 32.8879C37.0582 31.6497 34.5832 29.7461 33.586 30.9301C32.7234 31.9528 32.5437 32.1612 31.7502 32.0225C29.1205 31.5639 27.0918 29.5705 25.9608 27.1599C25.7219 26.6505 25.976 26.1292 26.177 26.0088C27.049 25.527 27.8099 24.9652 27.5211 24.0141C27.456 23.7963 26.2301 21.9545 24.7167 20.6319C23.8095 19.8372 21.9956 21.3692 21.1678 22.3581C20.7608 22.8443 20.7746 23.567 21.0033 24.0488C21.3648 25.1301 22.2131 26.539 22.8475 27.4874C25.1718 30.9621 27.9504 33.4301 32.5517 35.4034C33.1571 35.663 35.4689 36.5688 36.0449 36.4848C37.2534 36.4848 40.1956 33.8999 38.7878 32.8879H38.7869Z" fill="white"/>
      <path d="M30.8093 18.867L30.3354 19.2803C30.8338 19.7155 30.931 19.8537 31.2328 19.8537C35.2752 19.8537 38.5651 22.9395 38.5664 26.7323C38.5664 27.4946 39.7887 27.4941 39.7887 26.7319C39.7856 19.8488 31.7664 18.0017 30.8089 18.8666L30.8093 18.867Z" fill="white"/>
    </g>
  </g>
  <defs>
    <clipPath id="clip0_2524_72367">
      <rect width="30" height="30" fill="white" transform="translate(15.5 15.3737)"/>
    </clipPath>
    <clipPath id="clip1_2524_72367">
      <rect width="26.747" height="30" fill="white" transform="translate(17.5 15.3737)"/>
    </clipPath>
  </defs>
</svg>
