<svg width="70" height="70" viewBox="0 0 70 70" fill="none" xmlns="http://www.w3.org/2000/svg">
  <rect x="1" y="1" width="68" height="68" rx="34" fill="#FF432A"/>
  <rect x="1" y="1" width="68" height="68" rx="34" stroke="black" stroke-width="2"/>
  <g clip-path="url(#clip0_2668_116749)">
    <path fill-rule="evenodd" clip-rule="evenodd" d="M35 18.5C31.0872 18.5 27.2686 19.49 24.11 21.3521C22.0357 22.5779 20.2915 24.1571 19.0422 25.9486C18.2879 27.0093 18.3586 28.2586 18.9715 29.2014C19.4193 29.8614 20.1029 30.3564 20.9043 30.5921C20.975 30.6864 21.0457 30.7571 21.1165 30.8514L27.1507 36.815C28.0936 35.99 29.2722 35.4243 30.5686 35.2357L26.2315 30.9457C28.4943 31.04 30.9693 31.1107 33.2086 31.1579V34.9764C33.7979 34.9293 34.3872 34.9057 35.0236 34.9057C35.66 34.9057 36.2022 34.9293 36.7443 34.9764V31.1579C39.0307 31.1343 41.5529 31.04 43.8629 30.9457L39.6672 35.2829C40.94 35.495 42.0715 36.0843 42.9907 36.9329L48.9072 30.8279C48.9072 30.8279 49.0486 30.6864 49.0957 30.5921C49.8972 30.3564 50.5572 29.8614 51.005 29.2014C51.6179 28.2586 51.6886 27.0329 50.9343 25.9486C49.685 24.1336 47.9407 22.5779 45.8665 21.3521C42.7079 19.49 38.8893 18.5 34.9765 18.5H35ZM31.0872 38.135C32.3129 37.9936 33.6565 37.8521 35.0236 37.8521C36.3907 37.8521 37.7343 37.9936 38.96 38.135C40.6336 38.3236 41.9536 39.6671 42.1657 41.3171C42.3072 42.3307 42.425 43.3679 42.425 44.6643C42.425 45.9607 42.3072 47.0214 42.1657 48.0114C41.9536 49.6614 40.6336 51.005 38.96 51.1936C37.7343 51.335 36.3907 51.4764 35.0236 51.4764C33.6565 51.4764 32.3129 51.335 31.0872 51.1936C29.4136 51.005 28.0936 49.6614 27.8815 48.0114C27.74 46.9979 27.6222 45.9607 27.6222 44.6643C27.6222 43.3679 27.74 42.3071 27.8815 41.3171C28.0936 39.6671 29.4136 38.3236 31.0872 38.135Z" fill="white"/>
  </g>
  <defs>
    <clipPath id="clip0_2668_116749">
      <rect width="33" height="33" fill="white" transform="translate(18.5 18.5)"/>
    </clipPath>
  </defs>
</svg>
